<?xml version="1.0" encoding="utf-8"?>
<!-- Generator: Adobe Illustrator 22.0.1, SVG Export Plug-In . SVG Version: 6.00 Build 0)  -->
<svg version="1.1" id="レイヤー_1" xmlns="http://www.w3.org/2000/svg" xmlns:xlink="http://www.w3.org/1999/xlink" x="0px"
	 y="0px" viewBox="0 0 146.4 34.7" style="enable-background:new 0 0 146.4 34.7;" xml:space="preserve">
<style type="text/css">
	.st0{fill:#FFFFFF;}
</style>
<g>
	<path class="st0" d="M28.6,17.4c0,2.6-0.4,5-1.2,7.1c-0.8,2.1-1.9,3.9-3.3,5.4c-1.4,1.5-3.1,2.6-5.1,3.4c-2,0.8-4.2,1.2-6.6,1.2H0
		v-34h12.4c2.4,0,4.6,0.4,6.6,1.2c2,0.8,3.7,1.9,5.1,3.4c1.4,1.5,2.5,3.3,3.3,5.4C28.2,12.4,28.6,14.7,28.6,17.4z M26,17.4
		c0-2.4-0.3-4.5-1-6.3c-0.7-1.9-1.6-3.4-2.8-4.7C21.1,5,19.7,4.1,18,3.4c-1.7-0.7-3.5-1-5.6-1H2.5v30h9.9c2,0,3.9-0.3,5.6-1
		c1.7-0.7,3.1-1.6,4.3-2.9c1.2-1.3,2.1-2.8,2.8-4.7C25.7,21.9,26,19.7,26,17.4z"/>
	<path class="st0" d="M59.8,0.4v2H41.9v13.7h14.9v2H41.9v14.2h17.9v2H39.4v-34H59.8z"/>
	<path class="st0" d="M86.5,25.9c0.1-0.3,0.2-0.5,0.3-0.8c0.1-0.2,0.2-0.5,0.3-0.7l13.3-23.6c0.1-0.2,0.3-0.3,0.4-0.4
		c0.1,0,0.3-0.1,0.5-0.1h1.7v34H101V5.4c0-0.4,0-0.9,0.1-1.3L87.7,27.8c-0.2,0.4-0.5,0.6-1,0.6h-0.4c-0.4,0-0.7-0.2-1-0.6L71.7,4.1
		c0,0.5,0.1,0.9,0.1,1.3v28.9h-2.1v-34h1.7c0.2,0,0.4,0,0.5,0.1c0.1,0,0.3,0.2,0.4,0.4l13.7,23.6C86.2,24.9,86.4,25.4,86.5,25.9z"/>
	<path class="st0" d="M146.4,17.4c0,2.6-0.4,5-1.2,7.1c-0.8,2.1-1.9,4-3.3,5.5c-1.4,1.5-3.1,2.7-5.1,3.5c-2,0.8-4.2,1.2-6.6,1.2
		c-2.4,0-4.6-0.4-6.6-1.2c-2-0.8-3.7-2-5.1-3.5c-1.4-1.5-2.5-3.3-3.3-5.5c-0.8-2.1-1.2-4.5-1.2-7.1c0-2.6,0.4-5,1.2-7.1
		c0.8-2.1,1.9-4,3.3-5.5c1.4-1.5,3.1-2.7,5.1-3.5c2-0.8,4.2-1.2,6.6-1.2c2.4,0,4.6,0.4,6.6,1.2c2,0.8,3.7,2,5.1,3.5
		c1.4,1.5,2.5,3.3,3.3,5.5C146,12.4,146.4,14.7,146.4,17.4z M143.9,17.4c0-2.4-0.3-4.5-1-6.4c-0.7-1.9-1.6-3.5-2.8-4.8
		s-2.6-2.3-4.3-3c-1.7-0.7-3.5-1-5.6-1c-2,0-3.9,0.3-5.5,1c-1.7,0.7-3.1,1.7-4.3,3s-2.1,2.9-2.8,4.8c-0.7,1.9-1,4-1,6.4
		c0,2.4,0.3,4.5,1,6.4c0.7,1.9,1.6,3.5,2.8,4.8c1.2,1.3,2.6,2.3,4.3,3c1.7,0.7,3.5,1,5.5,1c2,0,3.9-0.3,5.6-1c1.7-0.7,3.1-1.7,4.3-3
		c1.2-1.3,2.1-2.9,2.8-4.8C143.5,21.9,143.9,19.7,143.9,17.4z"/>
</g>
</svg>
