<svg id="_x32_" xmlns="http://www.w3.org/2000/svg" viewBox="0 0 512 512"><style>.st0{fill:#3bc9db}</style><path class="st0" d="M451.8 76H60.2C27 76 0 103.1 0 136.2v221.5C0 400.9 35.1 436 78.2 436h355.6c43.1 0 78.2-35.1 78.2-78.2V136.2c0-33.1-27-60.2-60.2-60.2zm29.8 281.8c0 26.3-21.4 47.8-47.8 47.8H78.2c-26.3 0-47.8-21.4-47.8-47.8V136.2c0-16.4 13.4-29.8 29.8-29.8h391.6c16.4 0 29.8 13.4 29.8 29.8v221.6z"/><path class="st0" d="M151 281.3h32.6c5 0 9-4 9-9v-32.6c0-5-4-9-9-9H151c-5 0-9 4-9 9v32.6c-.1 5 4 9 9 9zm76 0h32.6c5 0 9-4 9-9v-32.6c0-5-4-9-9-9H227c-5 0-9 4-9 9v32.6c0 5 4 9 9 9zm76 0h32.6c5 0 9-4 9-9v-32.6c0-5-4-9-9-9H303c-5 0-9 4-9 9v32.6c0 5 4.1 9 9 9zm134.1 25.4h-32.6c-5 0-9 4-9 9v32.6c0 5 4 9 9 9h32.6c5 0 9-4 9-9v-32.6c0-5-4-9-9-9zM151 205.3h32.6c5 0 9-4 9-9v-32.6c0-5-4-9-9-9H151c-5 0-9 4-9 9v32.6c-.1 5 4 9 9 9zm-43.4 25.4H74.9c-5 0-9 4-9 9v32.6c0 5 4 9 9 9h32.6c5 0 9-4 9-9v-32.6c.1-5-3.9-9-8.9-9zm0-76.1H74.9c-5 0-9 4-9 9v32.6c0 5 4 9 9 9h32.6c5 0 9-4 9-9v-32.6c.1-4.9-3.9-9-8.9-9zm0 152.1H74.9c-5 0-9 4-9 9v32.6c0 5 4 9 9 9h32.6c5 0 9-4 9-9v-32.6c.1-5-3.9-9-8.9-9zM227 205.3h32.6c5 0 9-4 9-9v-32.6c0-5-4-9-9-9H227c-5 0-9 4-9 9v32.6c0 5 4 9 9 9zm76 0h32.6c5 0 9-4 9-9v-32.6c0-5-4-9-9-9H303c-5 0-9 4-9 9v32.6c0 5 4.1 9 9 9zm58 101.4H151c-5 0-9 4-9 9v32.6c0 5 4 9 9 9h210c5 0 9-4 9-9v-32.6c.1-5-4-9-9-9zm76.1-152.1h-58c-5 0-9 4-9 9v108.7c0 5 4 9 9 9h58c5 0 9-4 9-9V163.6c0-4.9-4-9-9-9z"/></svg>