<svg id="_x32_" xmlns="http://www.w3.org/2000/svg" viewBox="0 0 512 512"><style>.st0{fill:#3bc9db}</style><path class="st0" d="M314.2 370.5c-3.2 6.1-7.7 11.2-13.4 15.3-5.7 4.2-12.5 7.2-20.4 9.3-3.5.9-7.1 1.5-10.7 2v23h-27.4v-22.5c-7.8-.7-15.3-1.9-22.3-3.8-10.7-2.9-24.8-14.8-24.8-14.8-1.2-.7-2-1.9-2.2-3.3s.3-2.8 1.3-3.8l13.8-13.8c1.5-1.5 3.8-1.8 5.6-.7 0 0 10.3 8.9 18.1 11.1s15.5 3.2 23.2 3.2c9.7 0 17.8-1.7 24.2-5.2 6.4-3.5 9.6-8.8 9.6-16.1 0-5.3-1.6-9.4-4.7-12.5-3.1-3-8.5-4.9-16-5.8l-24.6-2.1c-14.6-1.4-25.8-5.5-33.7-12.2-7.9-6.7-11.9-16.8-11.9-30.4 0-7.5 1.5-14.2 4.6-20 3-5.9 7.2-10.8 12.5-14.9 5.3-4 11.4-7.1 18.4-9.1 2.9-.8 6-1.4 9.1-1.9v-19.8h27.4v19.4c6.4.6 12.5 1.7 18.2 3.2 9.6 2.6 19.7 10.5 19.7 10.5 1.3.7 2.1 1.9 2.3 3.3.2 1.4-.2 2.8-1.2 3.9L296 275.1c-1.4 1.4-3.5 1.8-5.2.8 0 0-7.6-5.4-14.2-7.2-6.6-1.7-13.5-2.6-20.8-2.6-9.5 0-16.6 1.8-21.1 5.5-4.6 3.7-6.8 8.4-6.8 14.3 0 5.3 1.6 9.3 4.9 12.2 3.2 2.8 8.7 4.7 16.4 5.5l21.6 1.8c16 1.4 28.1 5.7 36.3 12.8 8.2 7.1 12.3 17.4 12.3 31-.4 8.1-2 15.2-5.2 21.3z"/><path class="st0" d="M476.2 174.8c2.2-8.6-3-17.3-11.5-19.5l-57.6-14.8 50.6-27.7c7.8-4.2 10.6-14 6.3-21.7-4.2-7.8-14-10.6-21.7-6.4l-64.1 35 39.2-95.2c.5-1.2.5-2.5-.1-3.6-.5-1.1-1.5-2-2.7-2.4 0 0-31.7-16.4-49.6-16.4-37.1 0-73.1 19.4-105.8 19.4-9.9 0-19.5-1.8-28.8-6.4C208.8 4.2 189.8 0 171.8 0c-27.2 0-75.3 18.8-75.3 18.8-1.3.3-2.3 1.2-2.9 2.4-.6 1.2-.7 2.6-.2 3.8l43.2 104.9c-5.3 2.6-9 8-9 14.3 0 5.4 2.7 10.2 6.9 13.1-21.1 25.2-73.2 92.6-92.8 167C13.5 431.7 76.5 512 255.4 512s242-80.3 213.7-187.8c-17.3-65.7-59.8-125.9-84.1-156.4l71.8 18.4c8.5 2.3 17.2-2.9 19.4-11.4zM171.8 40c13.1 0 26.1 3.5 40.9 10.8 14.1 7.1 29.8 10.6 46.7 10.6 21.3 0 41.1-5.4 60.2-10.7 16.4-4.5 31.9-8.7 45.6-8.7h1.9l-35.4 86H179.2l-34.5-84c9.4-2.4 18.3-4 27.1-4zm248 381.1c-25.3 32.8-83.7 50.9-164.4 50.9S116.3 453.9 91 421.1c-16.5-21.4-20.1-50.6-10.6-86.7 21.9-83.2 91.8-159.8 92.5-160.5l12.8-13.8H325l12.8 13.8c.7.8 70.5 76.7 92.5 160.5 9.6 36.1 6 65.3-10.5 86.7z"/></svg>