<svg id="_x32_" xmlns="http://www.w3.org/2000/svg" viewBox="0 0 512 512"><style>.st0{fill:#3bc9db}</style><path class="st0" d="M99.3 399.5h320.1c6.2 0 11.8-3.4 14.7-8.9 2.8-5.5 2.4-12.1-1.1-17.1l-69.2-100.1c-6.3-9.1-16.8-14.5-27.9-14.3s-21.4 6-27.4 15.4l-19.7 31L234 226c-6.3-9.2-16.8-14.5-27.9-14.3s-21.4 6-27.4 15.4L85.3 374c-3.2 5.1-3.5 11.6-.5 16.9 2.9 5.3 8.4 8.6 14.5 8.6zm223.4-175.6c23.7 0 42.9-19.2 42.9-42.9s-19.2-42.9-42.9-42.9-42.9 19.2-42.9 42.9 19.2 42.9 42.9 42.9z"/><path class="st0" d="M0 42.3v427.4c0 12.5 10.1 22.6 22.6 22.6h466.8c12.5 0 22.6-10.1 22.6-22.6V42.3c0-12.5-10.1-22.6-22.6-22.6H22.6C10.1 19.7 0 29.8 0 42.3zm438.8 399.4H73.2c-12.5 0-22.6-10.1-22.6-22.6V92.9c0-12.5 10.1-22.6 22.6-22.6h365.6c12.5 0 22.6 10.1 22.6 22.6v326.2c0 12.5-10.1 22.6-22.6 22.6z"/></svg>