<?xml version="1.0" encoding="utf-8"?>
<!-- Generator: Adobe Illustrator 22.0.1, SVG Export Plug-In . SVG Version: 6.00 Build 0)  -->
<svg version="1.1" id="_x32_" xmlns="http://www.w3.org/2000/svg" xmlns:xlink="http://www.w3.org/1999/xlink" x="0px" y="0px"
	 viewBox="0 0 497.9 470.7" style="enable-background:new 0 0 497.9 470.7;" xml:space="preserve">
<style type="text/css">
	.st0{fill:#ADB5BD;}
</style>
<g>
	<path class="st0" d="M69.8,0C31.2,0,0,31.2,0,69.8V401c0,38.5,31.2,69.8,69.8,69.8h358.3c38.5,0,69.8-31.2,69.8-69.8V69.8
		c0-38.5-31.2-69.8-69.8-69.8H69.8z M442.9,388.7c0,17.8-14.5,32.3-32.3,32.3H87.2c-17.8,0-32.3-14.5-32.3-32.3V129.6h388
		L442.9,388.7L442.9,388.7z"/>
	<path class="st0" d="M200,348.5c29.9,0,50.9-20.3,50.9-49.2c0-18.2-9.2-32.5-19.1-38.3c10.3-7.8,15.9-19.1,15.9-32.3
		c0-27.4-18.8-45.1-47.9-45.1c-24.8,0-44,14-47.9,34.9c-0.2,1.3,0.1,2.5,0.7,3.4c0.6,0.9,1.6,1.5,2.7,1.7l19.6,4.6l1,0.1
		c1.9,0,3.4-1.1,4.1-3.2c2.8-9.6,9.1-14.5,18.9-14.5c11.6,0,18.8,7.3,18.8,19c0,12.5-8.1,20.6-20.6,20.6h-6.2
		c-2.5,0-4.3,1.8-4.3,4.4v18.1c0,2.5,1.8,4.4,4.3,4.4h6.6c14.4,0,23.4,9,23.4,23.4c0,12.8-8.2,21.1-20.8,21.1
		c-14.2,0-19.7-9.5-21.6-15.1c-0.6-1.9-2.2-3.1-4.2-3.1l-0.8,0.1l-20.4,4.7c-2.3,0.8-3.6,2.9-3.2,5.4
		C154.8,335.1,174,348.5,200,348.5z"/>
	<path class="st0" d="M294.8,238.1c0.8,0,1.6-0.3,2.5-0.8l21-14.8v119.1c0,2.5,1.8,4.4,4.4,4.4h21.1c2.5,0,4.3-1.8,4.3-4.4V190.5
		c0-2.5-1.8-4.4-4.3-4.4h-19.5c-2.2,0-3.8,0.5-5.3,1.8l-25,18.1c-1.6,1.3-2.4,2.8-2.4,4.8v23.4c0,1,0.2,1.9,0.7,2.6
		C292.8,237.7,293.7,238.1,294.8,238.1z"/>
</g>
</svg>
