<?xml version="1.0" encoding="utf-8"?>
<!-- Generator: Adobe Illustrator 22.0.1, SVG Export Plug-In . SVG Version: 6.00 Build 0)  -->
<svg version="1.1" id="レイヤー_1" xmlns="http://www.w3.org/2000/svg" xmlns:xlink="http://www.w3.org/1999/xlink" x="0px"
	 y="0px" viewBox="0 0 386.1 519" style="enable-background:new 0 0 386.1 519;" xml:space="preserve">
<style type="text/css">
	.st0{fill:#FFFFFF;}
</style>
<g>
	<path class="st0" d="M383.8,103.2L383.8,103.2c-4.9-25-17-47.8-35-65.8c-12.2-12.2-26.5-21.6-42.2-28c-22.9-9.3-47.9-11.7-72.3-7
		c-25,4.9-47.8,17-65.8,35l-94.1,94.2c-12.1,12.1-21.5,26.3-28,42.2c-9.3,23-11.7,48-7,72.3c4.8,25,16.9,47.7,35,65.8
		c12.1,12.2,26.4,21.6,42.2,28c15.3,6.2,31.5,9.4,47.9,9.4c8.1,0,16.3-0.8,24.4-2.3c25-4.8,47.8-16.9,65.9-35l7.9-7.9l0.2-1.2
		c0.9-7,0-14.5-2.7-21c-2.1-5.2-5.2-9.8-9.1-13.6c-5.8-5.9-13-9.7-21.4-11.4c-4.3-0.8-8.8-0.9-13.3-0.4l-1.2,0.2l-7.9,7.9
		c-5.8,5.8-12.6,10.3-20,13.3c-11,4.4-22.8,5.6-34.4,3.3c-11.8-2.3-22.6-8-31.2-16.6c-5.8-5.7-10.2-12.5-13.3-20
		c-4.3-10.7-5.5-22.9-3.3-34.3c2.4-12,8-22.6,16.6-31.2l94.1-94.1c5.8-5.8,12.5-10.3,20-13.3c10.8-4.4,22.7-5.6,34.3-3.3
		c11.8,2.3,22.6,8,31.2,16.6c5.7,5.8,10.2,12.5,13.3,20c4.3,10.8,5.5,22.9,3.3,34.3c-2.3,11.7-7.6,21.9-16,30.6l-2.9,3l3.5,2.3
		c8.1,5.4,15.8,11.7,22.8,18.7c6.9,6.9,13.2,14.6,18.7,22.8l2.4,3.6l3-3.1c11.9-12,21.1-26,27.4-41.5
		C386,152.5,388.5,127.5,383.8,103.2z"/>
	<path class="st0" d="M311.8,207.2c-12.2-12.2-26.4-21.6-42.2-28c-22.9-9.3-47.9-11.7-72.3-7c-25,4.8-47.8,16.9-65.8,35l-7.9,7.9
		l-0.1,1.2c-0.9,7.2,0,14.5,2.7,20.9c2,5.1,5.1,9.7,9.1,13.7c6,5.9,13.1,9.7,21.3,11.3c4.2,0.9,8.8,1,13.3,0.4l1.2-0.2l7.9-7.9
		c5.8-5.8,12.5-10.3,20-13.3c10.9-4.4,22.7-5.6,34.3-3.4c12,2.4,22.5,8,31.2,16.6c5.8,5.8,10.2,12.5,13.3,19.9
		c4.4,10.9,5.6,22.8,3.3,34.4c-2.3,12-7.9,22.5-16.6,31.2l-94.2,94.1c-5.7,5.8-12.4,10.2-20,13.3c-10.9,4.4-22.8,5.5-34.3,3.3
		c-12-2.4-22.5-8-31.2-16.6c-5.8-5.7-10.2-12.4-13.3-19.9c-4.4-10.9-5.6-22.8-3.3-34.3c2.3-11.7,7.7-22,16-30.6l2.9-3l-3.5-2.3
		c-8-5.3-15.7-11.6-22.8-18.7l-0.4-0.3c-6.7-6.8-12.9-14.3-18.3-22.5l-2.4-3.6l-3,3.1c-11.9,12-21.1,26-27.4,41.5
		c-9.3,22.9-11.7,47.9-7,72.3c4.8,25,16.9,47.8,35,65.8c12.1,12.1,26.3,21.5,42.2,28c15.3,6.2,31.5,9.3,47.8,9.3
		c8.1,0,16.3-0.8,24.4-2.3c25-4.8,47.8-16.9,65.8-35l94.1-94.1c12.2-12.2,21.6-26.3,28-42.2c9.3-22.9,11.7-48,7-72.3
		C342,248,329.9,225.2,311.8,207.2z"/>
</g>
</svg>
