<svg id="_x32_" xmlns="http://www.w3.org/2000/svg" viewBox="0 0 497.9 470.7"><style>.st0{fill:#adb5bd}</style><path class="st0" d="M69.8 0C31.2 0 0 31.2 0 69.8V401c0 38.5 31.2 69.8 69.8 69.8h358.3c38.5 0 69.8-31.2 69.8-69.8V69.8c0-38.5-31.2-69.8-69.8-69.8H69.8zm373.1 388.7c0 17.8-14.5 32.3-32.3 32.3H87.2c-17.8 0-32.3-14.5-32.3-32.3V129.6h388v259.1z"/><path class="st0" d="M200 348.5c29.9 0 50.9-20.3 50.9-49.2 0-18.2-9.2-32.5-19.1-38.3 10.3-7.8 15.9-19.1 15.9-32.3 0-27.4-18.8-45.1-47.9-45.1-24.8 0-44 14-47.9 34.9-.2 1.3.1 2.5.7 3.4.6.9 1.6 1.5 2.7 1.7l19.6 4.6 1 .1c1.9 0 3.4-1.1 4.1-3.2 2.8-9.6 9.1-14.5 18.9-14.5 11.6 0 18.8 7.3 18.8 19 0 12.5-8.1 20.6-20.6 20.6h-6.2c-2.5 0-4.3 1.8-4.3 4.4v18.1c0 2.5 1.8 4.4 4.3 4.4h6.6c14.4 0 23.4 9 23.4 23.4 0 12.8-8.2 21.1-20.8 21.1-14.2 0-19.7-9.5-21.6-15.1-.6-1.9-2.2-3.1-4.2-3.1l-.8.1-20.4 4.7c-2.3.8-3.6 2.9-3.2 5.4 4.9 21.5 24.1 34.9 50.1 34.9zm94.8-110.4c.8 0 1.6-.3 2.5-.8l21-14.8v119.1c0 2.5 1.8 4.4 4.4 4.4h21.1c2.5 0 4.3-1.8 4.3-4.4V190.5c0-2.5-1.8-4.4-4.3-4.4h-19.5c-2.2 0-3.8.5-5.3 1.8L294 206c-1.6 1.3-2.4 2.8-2.4 4.8v23.4c0 1 .2 1.9.7 2.6.5.9 1.4 1.3 2.5 1.3z"/></svg>