<svg id="レイヤー_1" xmlns="http://www.w3.org/2000/svg" viewBox="0 0 272.8 227.3"><style>.st0{fill:#00a4de}</style><path class="st0" d="M164.6 121.7c-9.1-10.1-21.7-15.8-37.8-17 14.4-3.9 24.8-9.6 31.4-17.3s9.8-17.8 9.8-30.7c.2-9.5-2.1-18.8-6.6-27.1-4.5-7.9-11.2-14.3-19.2-18.6-7.3-4-16-6.9-26.2-8.6S87.9 0 62.3 0H0v227.2h64.2c25.8 0 44.4-.9 55.8-2.6 11.4-1.8 20.9-4.8 28.6-8.9 9.3-4.8 16.9-12.2 21.9-21.4 5.1-9.2 7.7-19.9 7.7-32.1 0-16.9-4.5-30.4-13.6-40.5zm-107-71.4h13.3c15.4 0 25.7 1.7 31 5.2 5.3 3.5 7.9 9.5 7.9 18s-2.9 14-8.5 17.4-16.1 5-31.4 5H57.6V50.3zm52.8 130.3c-6.1 3.7-16.5 5.5-31.1 5.5H57.6v-49.5h22.6c15 0 25.4 1.9 30.9 5.7s8.4 10.4 8.4 20-3 14.7-9.2 18.4l.1-.1zM244 169.7c-15.9 0-28.8 12.9-28.8 28.8s12.9 28.8 28.8 28.8 28.8-12.9 28.8-28.8-12.9-28.8-28.8-28.8zM219 0h50v151.5h-50z"/></svg>