<svg id="レイヤー_1" xmlns="http://www.w3.org/2000/svg" viewBox="0 0 142.1 128.2"><style>.st0{fill:#009cff}</style><path class="st0" d="M124.4 15.4C113.2 5.7 97.6 0 79.5 0 32.2 0 0 36.5 0 36.5l9 14.4s5 .4 2.4-8.1c2.3-4.3 6.8-10.2 15.6-16.9v95.8c-3.8 1.1-8.8 3.1-5.4 6.5h26.1c3.4-3.4-2-5.5-5.3-6.5V99.1s17.9 7 37.1 7c16.9 0 32.3-5 43.8-14.1 11.5-9 18.8-22.5 18.8-37.9-.1-15.1-6.6-29-17.7-38.7zm-13.8 69.2c-7.9 7.8-19.4 12.8-32.7 12.7-14.8 0-27.3-2.9-35.5-6.9V18.5c9-6.4 23.7-10.4 35.5-10.3 14.4 0 25.7 5.4 33.3 13.7S123 41.2 123 54c-.1 12.4-4.5 22.7-12.4 30.6z" id="レイヤー_1_1_"/></svg>