<svg id="logo" xmlns="http://www.w3.org/2000/svg" viewBox="0 0 390 656.3"><style>.st0{fill:#444}</style><title>tumblr-logo-dark</title><path class="st0" d="M387.1 615.8c-22.2 23.7-73.7 39.8-119.8 40.6h-5.1c-154.8 0-188.5-113.8-188.5-180.3V291.5h-61c-7.1 0-12.8-5.7-12.8-12.8v-87.2c0-9.2 5.8-17.4 14.5-20.5C94 143 118.9 73.7 122.6 20.9 123.6 6.8 131 0 143.2 0h90.9c7.1 0 12.8 5.7 12.8 12.8v147.6h106.4c7.1 0 12.8 5.7 12.8 12.8V278c0 7.1-5.7 12.8-12.8 12.8H246.4v170.7c0 42.9 28.2 54.7 45.7 54.7 16.7-.4 33.2-5.5 41.5-8.8 6.1-2.5 11.5-4.1 16.3-2.9 4.5 1.1 7.4 4.3 9.4 10.1l28.2 82.4c2.4 6.6 4.3 13.7-.4 18.8z"/></svg>