<svg id="レイヤー_1" xmlns="http://www.w3.org/2000/svg" viewBox="0 0 146.4 34.7"><style>.st0{fill:#fff}</style><path class="st0" d="M28.6 17.4c0 2.6-.4 5-1.2 7.1-.8 2.1-1.9 3.9-3.3 5.4-1.4 1.5-3.1 2.6-5.1 3.4-2 .8-4.2 1.2-6.6 1.2H0V.5h12.4c2.4 0 4.6.4 6.6 1.2 2 .8 3.7 1.9 5.1 3.4 1.4 1.5 2.5 3.3 3.3 5.4.8 1.9 1.2 4.2 1.2 6.9zm-2.6 0c0-2.4-.3-4.5-1-6.3-.7-1.9-1.6-3.4-2.8-4.7-1.1-1.4-2.5-2.3-4.2-3-1.7-.7-3.5-1-5.6-1H2.5v30h9.9c2 0 3.9-.3 5.6-1 1.7-.7 3.1-1.6 4.3-2.9 1.2-1.3 2.1-2.8 2.8-4.7.6-1.9.9-4.1.9-6.4zM59.8.4v2H41.9v13.7h14.9v2H41.9v14.2h17.9v2H39.4V.3h20.4zm26.7 25.5c.1-.3.2-.5.3-.8.1-.2.2-.5.3-.7L100.4.8c.1-.2.3-.3.4-.4.1 0 .3-.1.5-.1h1.7v34h-2V5.4c0-.4 0-.9.1-1.3L87.7 27.8c-.2.4-.5.6-1 .6h-.4c-.4 0-.7-.2-1-.6L71.7 4.1c0 .5.1.9.1 1.3v28.9h-2.1V.3h1.7c.2 0 .4 0 .5.1.1 0 .3.2.4.4L86 24.4c.2.5.4 1 .5 1.5zm59.9-8.5c0 2.6-.4 5-1.2 7.1-.8 2.1-1.9 4-3.3 5.5s-3.1 2.7-5.1 3.5c-2 .8-4.2 1.2-6.6 1.2-2.4 0-4.6-.4-6.6-1.2-2-.8-3.7-2-5.1-3.5-1.4-1.5-2.5-3.3-3.3-5.5-.8-2.1-1.2-4.5-1.2-7.1 0-2.6.4-5 1.2-7.1.8-2.1 1.9-4 3.3-5.5s3.1-2.7 5.1-3.5c2-.8 4.2-1.2 6.6-1.2 2.4 0 4.6.4 6.6 1.2 2 .8 3.7 2 5.1 3.5 1.4 1.5 2.5 3.3 3.3 5.5.8 2.1 1.2 4.4 1.2 7.1zm-2.5 0c0-2.4-.3-4.5-1-6.4-.7-1.9-1.6-3.5-2.8-4.8s-2.6-2.3-4.3-3c-1.7-.7-3.5-1-5.6-1-2 0-3.9.3-5.5 1-1.7.7-3.1 1.7-4.3 3s-2.1 2.9-2.8 4.8c-.7 1.9-1 4-1 6.4 0 2.4.3 4.5 1 6.4.7 1.9 1.6 3.5 2.8 4.8 1.2 1.3 2.6 2.3 4.3 3 1.7.7 3.5 1 5.5 1s3.9-.3 5.6-1c1.7-.7 3.1-1.7 4.3-3 1.2-1.3 2.1-2.9 2.8-4.8.6-1.9 1-4.1 1-6.4z"/></svg>