<?xml version="1.0" encoding="utf-8"?>
<!-- Generator: Adobe Illustrator 22.0.1, SVG Export Plug-In . SVG Version: 6.00 Build 0)  -->
<svg version="1.1" id="_x32_" xmlns="http://www.w3.org/2000/svg" xmlns:xlink="http://www.w3.org/1999/xlink" x="0px" y="0px"
	 viewBox="0 0 512 512" style="enable-background:new 0 0 512 512;" xml:space="preserve">
<style type="text/css">
	.st0{fill:#3BC9DB;}
</style>
<g>
	<path class="st0" d="M97.1,475.3c-3.3,3.2-8.5,3.2-11.8,0l-48.6-48.6c-3.2-3.2-3.2-8.5,0-11.8l46.5-46.5l-24.2-24.2l-46.5,46.5
		c-16.6,16.6-16.6,43.6,0,60.2l48.6,48.6c16.6,16.6,43.6,16.6,60.2,0l46.5-46.5l-24.2-24.2L97.1,475.3z"/>
	<path class="st0" d="M302.5,0l-12,14.3L79.6,264c-23.2,27.5-21.5,68.1,4,93.6l70.9,70.9c25.4,25.4,66.1,27.1,93.5,4l264-222.9
		L302.5,0z M225.9,406.2c-13.9,11.7-34.4,10.8-47.2-2l-70.9-70.9c-12.8-12.8-13.7-33.4-2-47.2l31.6-37.4l125.9,125.9L225.9,406.2z
		 M329,319.1L192.9,183l84.9-100.6l151.8,151.8L329,319.1z M288.9,69.2l15.7-18.6l156.8,156.8l-18.6,15.7L288.9,69.2z"/>
</g>
</svg>
