<?xml version="1.0" encoding="utf-8"?>
<!-- Generator: Adobe Illustrator 22.0.1, SVG Export Plug-In . SVG Version: 6.00 Build 0)  -->
<svg version="1.1" id="_x32_" xmlns="http://www.w3.org/2000/svg" xmlns:xlink="http://www.w3.org/1999/xlink" x="0px" y="0px"
	 viewBox="0 0 512 512" style="enable-background:new 0 0 512 512;" xml:space="preserve">
<style type="text/css">
	.st0{fill:#3BC9DB;}
</style>
<g>
	<path class="st0" d="M451.8,76H60.2C27,76,0,103.1,0,136.2v221.5C0,400.9,35.1,436,78.2,436h355.6c43.1,0,78.2-35.1,78.2-78.2
		V136.2C512,103.1,485,76,451.8,76z M481.6,357.8c0,26.3-21.4,47.8-47.8,47.8H78.2c-26.3,0-47.8-21.4-47.8-47.8V136.2
		c0-16.4,13.4-29.8,29.8-29.8h391.6c16.4,0,29.8,13.4,29.8,29.8L481.6,357.8L481.6,357.8z"/>
	<path class="st0" d="M151,281.3h32.6c5,0,9-4,9-9v-32.6c0-5-4-9-9-9H151c-5,0-9,4-9,9v32.6C141.9,277.3,146,281.3,151,281.3z"/>
	<path class="st0" d="M227,281.3h32.6c5,0,9-4,9-9v-32.6c0-5-4-9-9-9H227c-5,0-9,4-9,9v32.6C218,277.3,222,281.3,227,281.3z"/>
	<path class="st0" d="M303,281.3h32.6c5,0,9-4,9-9v-32.6c0-5-4-9-9-9H303c-5,0-9,4-9,9v32.6C294,277.3,298.1,281.3,303,281.3z"/>
	<path class="st0" d="M437.1,306.7h-32.6c-5,0-9,4-9,9v32.6c0,5,4,9,9,9h32.6c5,0,9-4,9-9v-32.6
		C446.1,310.7,442.1,306.7,437.1,306.7z"/>
	<path class="st0" d="M151,205.3h32.6c5,0,9-4,9-9v-32.6c0-5-4-9-9-9H151c-5,0-9,4-9,9v32.6C141.9,201.3,146,205.3,151,205.3z"/>
	<path class="st0" d="M107.6,230.7H74.9c-5,0-9,4-9,9v32.6c0,5,4,9,9,9h32.6c5,0,9-4,9-9v-32.6C116.6,234.7,112.6,230.7,107.6,230.7
		z"/>
	<path class="st0" d="M107.6,154.6H74.9c-5,0-9,4-9,9v32.6c0,5,4,9,9,9h32.6c5,0,9-4,9-9v-32.6C116.6,158.7,112.6,154.6,107.6,154.6
		z"/>
	<path class="st0" d="M107.6,306.7H74.9c-5,0-9,4-9,9v32.6c0,5,4,9,9,9h32.6c5,0,9-4,9-9v-32.6C116.6,310.7,112.6,306.7,107.6,306.7
		z"/>
	<path class="st0" d="M227,205.3h32.6c5,0,9-4,9-9v-32.6c0-5-4-9-9-9H227c-5,0-9,4-9,9v32.6C218,201.3,222,205.3,227,205.3z"/>
	<path class="st0" d="M303,205.3h32.6c5,0,9-4,9-9v-32.6c0-5-4-9-9-9H303c-5,0-9,4-9,9v32.6C294,201.3,298.1,205.3,303,205.3z"/>
	<path class="st0" d="M361,306.7H151c-5,0-9,4-9,9v32.6c0,5,4,9,9,9H361c5,0,9-4,9-9v-32.6C370.1,310.7,366,306.7,361,306.7z"/>
	<path class="st0" d="M437.1,154.6h-58c-5,0-9,4-9,9v108.7c0,5,4,9,9,9h58c5,0,9-4,9-9V163.6C446.1,158.7,442.1,154.6,437.1,154.6z"
		/>
</g>
</svg>
