<?xml version="1.0" encoding="utf-8"?>
<!-- Generator: Adobe Illustrator 22.0.1, SVG Export Plug-In . SVG Version: 6.00 Build 0)  -->
<svg version="1.1" id="_x32_" xmlns="http://www.w3.org/2000/svg" xmlns:xlink="http://www.w3.org/1999/xlink" x="0px" y="0px"
	 viewBox="0 0 512 512" style="enable-background:new 0 0 512 512;" xml:space="preserve">
<style type="text/css">
	.st0{fill:#3BC9DB;}
</style>
<g>
	<path class="st0" d="M314.2,370.5c-3.2,6.1-7.7,11.2-13.4,15.3c-5.7,4.2-12.5,7.2-20.4,9.3c-3.5,0.9-7.1,1.5-10.7,2v23h-27.4v-22.5
		c-7.8-0.7-15.3-1.9-22.3-3.8c-10.7-2.9-24.8-14.8-24.8-14.8c-1.2-0.7-2-1.9-2.2-3.3s0.3-2.8,1.3-3.8l13.8-13.8
		c1.5-1.5,3.8-1.8,5.6-0.7c0,0,10.3,8.9,18.1,11.1s15.5,3.2,23.2,3.2c9.7,0,17.8-1.7,24.2-5.2c6.4-3.5,9.6-8.8,9.6-16.1
		c0-5.3-1.6-9.4-4.7-12.5c-3.1-3-8.5-4.9-16-5.8l-24.6-2.1c-14.6-1.4-25.8-5.5-33.7-12.2c-7.9-6.7-11.9-16.8-11.9-30.4
		c0-7.5,1.5-14.2,4.6-20c3-5.9,7.2-10.8,12.5-14.9c5.3-4,11.4-7.1,18.4-9.1c2.9-0.8,6-1.4,9.1-1.9v-19.8h27.4v19.4
		c6.4,0.6,12.5,1.7,18.2,3.2c9.6,2.6,19.7,10.5,19.7,10.5c1.3,0.7,2.1,1.9,2.3,3.3c0.2,1.4-0.2,2.8-1.2,3.9l-12.9,13.1
		c-1.4,1.4-3.5,1.8-5.2,0.8c0,0-7.6-5.4-14.2-7.2c-6.6-1.7-13.5-2.6-20.8-2.6c-9.5,0-16.6,1.8-21.1,5.5c-4.6,3.7-6.8,8.4-6.8,14.3
		c0,5.3,1.6,9.3,4.9,12.2c3.2,2.8,8.7,4.7,16.4,5.5l21.6,1.8c16,1.4,28.1,5.7,36.3,12.8c8.2,7.1,12.3,17.4,12.3,31
		C319,357.3,317.4,364.4,314.2,370.5z"/>
	<path class="st0" d="M476.2,174.8c2.2-8.6-3-17.3-11.5-19.5l-57.6-14.8l50.6-27.7c7.8-4.2,10.6-14,6.3-21.7
		c-4.2-7.8-14-10.6-21.7-6.4l-64.1,35l39.2-95.2c0.5-1.2,0.5-2.5-0.1-3.6c-0.5-1.1-1.5-2-2.7-2.4c0,0-31.7-16.4-49.6-16.4
		c-37.1,0-73.1,19.4-105.8,19.4c-9.9,0-19.5-1.8-28.8-6.4C208.8,4.2,189.8,0,171.8,0c-27.2,0-75.3,18.8-75.3,18.8
		c-1.3,0.3-2.3,1.2-2.9,2.4c-0.6,1.2-0.7,2.6-0.2,3.8l43.2,104.9c-5.3,2.6-9,8-9,14.3c0,5.4,2.7,10.2,6.9,13.1
		c-21.1,25.2-73.2,92.6-92.8,167C13.5,431.7,76.5,512,255.4,512s242-80.3,213.7-187.8c-17.3-65.7-59.8-125.9-84.1-156.4l71.8,18.4
		C465.3,188.5,474,183.3,476.2,174.8z M171.8,40c13.1,0,26.1,3.5,40.9,10.8c14.1,7.1,29.8,10.6,46.7,10.6c21.3,0,41.1-5.4,60.2-10.7
		c16.4-4.5,31.9-8.7,45.6-8.7l1.9,0l-35.4,86H179.2l-34.5-84C154.1,41.6,163,40,171.8,40z M419.8,421.1
		c-25.3,32.8-83.7,50.9-164.4,50.9c-80.7,0-139.1-18.1-164.4-50.9c-16.5-21.4-20.1-50.6-10.6-86.7c21.9-83.2,91.8-159.8,92.5-160.5
		l12.8-13.8H325l12.8,13.8c0.7,0.8,70.5,76.7,92.5,160.5C439.9,370.5,436.3,399.7,419.8,421.1z"/>
</g>
</svg>
