<?xml version="1.0" encoding="utf-8"?>
<!-- Generator: Adobe Illustrator 22.0.1, SVG Export Plug-In . SVG Version: 6.00 Build 0)  -->
<svg version="1.1" id="_x32_" xmlns="http://www.w3.org/2000/svg" xmlns:xlink="http://www.w3.org/1999/xlink" x="0px" y="0px"
	 viewBox="0 0 512 512" style="enable-background:new 0 0 512 512;" xml:space="preserve">
<style type="text/css">
	.st0{fill:#3BC9DB;}
</style>
<g>
	<path class="st0" d="M341.6,0H170.4c-29.3,0-53.1,23.8-53.1,53.1v405.8c0,29.3,23.8,53.1,53.1,53.1h171.2
		c29.3,0,53.1-23.8,53.1-53.1V53.1C394.7,23.8,370.9,0,341.6,0z M256,480.6c-11.9,0-21.5-9.7-21.5-21.5c0-11.9,9.7-21.5,21.5-21.5
		c11.9,0,21.5,9.7,21.5,21.5C277.5,471,267.9,480.6,256,480.6z M363.3,67.3v340.2H148.7V67.3H363.3z"/>
</g>
</svg>
