<?xml version="1.0" encoding="utf-8"?>
<!-- Generator: Adobe Illustrator 22.0.1, SVG Export Plug-In . SVG Version: 6.00 Build 0)  -->
<svg version="1.1" id="_x32_" xmlns="http://www.w3.org/2000/svg" xmlns:xlink="http://www.w3.org/1999/xlink" x="0px" y="0px"
	 viewBox="0 0 512 512" style="enable-background:new 0 0 512 512;" xml:space="preserve">
<style type="text/css">
	.st0{fill:#3BC9DB;}
</style>
<g>
	<path class="st0" d="M99.3,399.5h320.1c6.2,0,11.8-3.4,14.7-8.9c2.8-5.5,2.4-12.1-1.1-17.1l-69.2-100.1
		c-6.3-9.1-16.8-14.5-27.9-14.3s-21.4,6-27.4,15.4l-19.7,31L234,226c-6.3-9.2-16.8-14.5-27.9-14.3s-21.4,6-27.4,15.4L85.3,374
		c-3.2,5.1-3.5,11.6-0.5,16.9C87.7,396.2,93.2,399.5,99.3,399.5z"/>
	<path class="st0" d="M322.7,223.9c23.7,0,42.9-19.2,42.9-42.9c0-23.7-19.2-42.9-42.9-42.9c-23.7,0-42.9,19.2-42.9,42.9
		C279.8,204.7,299,223.9,322.7,223.9z"/>
	<path class="st0" d="M0,42.3v427.4c0,12.5,10.1,22.6,22.6,22.6h466.8c12.5,0,22.6-10.1,22.6-22.6V467V42.3
		c0-12.5-10.1-22.6-22.6-22.6H22.6C10.1,19.7,0,29.8,0,42.3z M438.8,441.7H73.2c-12.5,0-22.6-10.1-22.6-22.6V92.9
		c0-12.5,10.1-22.6,22.6-22.6h365.6c12.5,0,22.6,10.1,22.6,22.6v326.2C461.4,431.6,451.3,441.7,438.8,441.7z"/>
</g>
</svg>
