<?xml version="1.0" encoding="utf-8"?>
<!-- Generator: Adobe Illustrator 22.0.1, SVG Export Plug-In . SVG Version: 6.00 Build 0)  -->
<svg version="1.1" id="レイヤー_1" xmlns="http://www.w3.org/2000/svg" xmlns:xlink="http://www.w3.org/1999/xlink" x="0px"
	 y="0px" viewBox="0 0 142.1 128.2" style="enable-background:new 0 0 142.1 128.2;" xml:space="preserve">
<style type="text/css">
	.st0{fill:#009CFF;}
</style>
<g id="レイヤー_1_1_">
	<g>
		<path class="st0" d="M124.4,15.4C113.2,5.7,97.6,0,79.5,0C32.2,0,0,36.5,0,36.5l9,14.4c0,0,5,0.4,2.4-8.1
			c2.3-4.3,6.8-10.2,15.6-16.9c0,0,0,90.9,0,95.8c-3.8,1.1-8.8,3.1-5.4,6.5c5.8,0,21.7,0,26.1,0c3.4-3.4-2-5.5-5.3-6.5
			c0-3.7,0-22.6,0-22.6s17.9,7,37.1,7c16.9,0,32.3-5,43.8-14.1c11.5-9,18.8-22.5,18.8-37.9C142,39,135.5,25.1,124.4,15.4z
			 M110.6,84.6c-7.9,7.8-19.4,12.8-32.7,12.7c-14.8,0-27.3-2.9-35.5-6.9c0,0,0-2.5,0-20.6c0-19.6,0-51.3,0-51.3
			c9-6.4,23.7-10.4,35.5-10.3c14.4,0,25.7,5.4,33.3,13.7S123,41.2,123,54C122.9,66.4,118.5,76.7,110.6,84.6z"/>
	</g>
</g>
</svg>
